<svg xmlns="http://www.w3.org/2000/svg" width="600" height="600" viewBox="0 0 600 600" version="1.1"><path d="M 0 37.500 L 0 75 37.500 75 L 75 75 75 112.500 L 75 150 37.500 150 L 0 150 0 187.500 L 0 225 37.500 225 L 75 225 75 262.500 L 75 300 37.500 300 L 0 300 0 337.500 L 0 375 37.500 375 L 75 375 75 412.500 L 75 450 37.500 450 L 0 450 0 487.500 L 0 525 37.500 525 L 75 525 75 562.500 L 75 600 112.500 600 L 150 600 150 562.500 L 150 525 187.500 525 L 225 525 225 562.500 L 225 600 262.500 600 L 300 600 300 562.500 L 300 525 337.500 525 L 375 525 375 562.500 L 375 600 412.500 600 L 450 600 450 562.500 L 450 525 487.500 525 L 525 525 525 562.500 L 525 600 562.500 600 L 600 600 600 562.500 L 600 525 562.500 525 L 525 525 525 487.500 L 525 450 562.500 450 L 600 450 600 487.167 C 600 507.608, 600.280 524.053, 600.623 523.710 C 600.966 523.368, 600.910 489.768, 600.500 449.044 L 599.755 375 562.378 375 L 525 375 525 337.500 L 525 300 562.500 300 L 600 300 600 337.167 C 600 357.608, 600.280 374.053, 600.623 373.710 C 600.966 373.368, 600.910 339.768, 600.500 299.044 L 599.755 225 562.378 225 L 525 225 525 187.500 L 525 150 562.500 150 L 600 150 600 187.167 C 600 207.608, 600.280 224.053, 600.623 223.710 C 600.966 223.368, 600.910 189.768, 600.500 149.044 L 599.755 75 562.378 75 L 525 75 525 37.500 L 525 0 487.500 0 L 450 0 450 37.500 L 450 75 412.500 75 L 375 75 375 37.500 L 375 0 337.500 0 L 300 0 300 37.500 L 300 75 262.500 75 L 225 75 225 37.500 L 225 0 187.500 0 L 150 0 150 37.500 L 150 75 112.500 75 L 75 75 75 37.500 L 75 0 37.500 0 L 0 0 0 37.500 M 150 112.500 L 150 150 112.500 150 L 75 150 75 187.500 L 75 225 112.500 225 L 150 225 150 262.500 L 150 300 112.500 300 L 75 300 75 337.500 L 75 375 112.500 375 L 150 375 150 412.500 L 150 450 112.500 450 L 75 450 75 487.500 L 75 525 112.500 525 L 150 525 150 487.500 L 150 450 187.500 450 L 225 450 225 487.500 L 225 525 262.500 525 L 300 525 300 487.500 L 300 450 337.500 450 L 375 450 375 487.500 L 375 525 412.500 525 L 450 525 450 487.500 L 450 450 487.500 450 L 525 450 525 412.500 L 525 375 487.500 375 L 450 375 450 337.500 L 450 300 487.500 300 L 525 300 525 262.500 L 525 225 487.500 225 L 450 225 450 187.500 L 450 150 487.500 150 L 525 150 525 112.500 L 525 75 487.500 75 L 450 75 450 112.500 L 450 150 412.500 150 L 375 150 375 112.500 L 375 75 337.500 75 L 300 75 300 112.500 L 300 150 262.500 150 L 225 150 225 112.500 L 225 75 187.500 75 L 150 75 150 112.500 M 0.454 187.500 C 0.453 208.400, 0.586 217.092, 0.748 206.816 C 0.911 196.540, 0.911 179.440, 0.749 168.816 C 0.587 158.192, 0.454 166.600, 0.454 187.500 M 150 187.500 L 150 225 187.500 225 L 225 225 225 262.500 L 225 300 187.500 300 L 150 300 150 337.500 L 150 375 187.500 375 L 225 375 225 412.500 L 225 450 262.500 450 L 300 450 300 412.500 L 300 375 337.500 375 L 375 375 375 412.500 L 375 450 412.500 450 L 450 450 450 412.500 L 450 375 412.500 375 L 375 375 375 337.500 L 375 300 412.500 300 L 450 300 450 262.500 L 450 225 412.500 225 L 375 225 375 187.500 L 375 150 337.500 150 L 300 150 300 187.500 L 300 225 262.500 225 L 225 225 225 187.500 L 225 150 187.500 150 L 150 150 150 187.500 M 300 262.500 L 300 300 262.500 300 L 225 300 225 337.500 L 225 375 262.500 375 L 300 375 300 337.500 L 300 300 337.500 300 L 375 300 375 262.500 L 375 225 337.500 225 L 300 225 300 262.500 M 0.454 337.500 C 0.453 358.400, 0.586 367.092, 0.748 356.816 C 0.911 346.540, 0.911 329.440, 0.749 318.816 C 0.587 308.192, 0.454 316.600, 0.454 337.500 M 0.454 487.500 C 0.453 508.400, 0.586 517.092, 0.748 506.816 C 0.911 496.540, 0.911 479.440, 0.749 468.816 C 0.587 458.192, 0.454 466.600, 0.454 487.500" stroke="none" fill="#a34c3c" fill-rule="evenodd"/><path d="M 75 37.500 L 75 75 37.500 75 L 0 75 0 112.500 L 0 150 37.500 150 L 75 150 75 187.500 L 75 225 37.500 225 L 0 225 0 262.500 L 0 300 37.500 300 L 75 300 75 337.500 L 75 375 37.500 375 L 0 375 0 412.500 L 0 450 37.500 450 L 75 450 75 487.500 L 75 525 37.500 525 L 0 525 0 562.500 L 0 600 37.500 600 L 75 600 75 562.500 L 75 525 112.500 525 L 150 525 150 562.500 L 150 600 187.500 600 L 225 600 225 562.500 L 225 525 262.500 525 L 300 525 300 562.500 L 300 600 337.500 600 L 375 600 375 562.500 L 375 525 412.500 525 L 450 525 450 562.500 L 450 600 487.500 600 L 525 600 525 562.500 L 525 525 562.500 525 L 600 525 600 562.167 C 600 582.608, 600.280 599.053, 600.623 598.710 C 600.966 598.368, 600.910 564.768, 600.500 524.044 L 599.755 450 562.378 450 L 525 450 525 412.500 L 525 375 562.500 375 L 600 375 600 412.167 C 600 432.608, 600.280 449.053, 600.623 448.710 C 600.966 448.368, 600.910 414.768, 600.500 374.044 L 599.755 300 562.378 300 L 525 300 525 262.500 L 525 225 562.500 225 L 600 225 600 262.167 C 600 282.608, 600.280 299.053, 600.623 298.710 C 600.966 298.368, 600.910 264.768, 600.500 224.044 L 599.755 150 562.378 150 L 525 150 525 112.500 L 525 75 562.500 75 L 600 75 600 112.167 C 600 132.608, 600.280 149.053, 600.623 148.710 C 600.966 148.368, 600.910 114.768, 600.500 74.044 L 599.755 0 562.378 0 L 525 0 525 37.500 L 525 75 487.500 75 L 450 75 450 37.500 L 450 0 412.500 0 L 375 0 375 37.500 L 375 75 337.500 75 L 300 75 300 37.500 L 300 0 262.500 0 L 225 0 225 37.500 L 225 75 187.500 75 L 150 75 150 37.500 L 150 0 112.500 0 L 75 0 75 37.500 M 0.454 112.500 C 0.453 133.400, 0.586 142.092, 0.748 131.816 C 0.911 121.540, 0.911 104.440, 0.749 93.816 C 0.587 83.192, 0.454 91.600, 0.454 112.500 M 75 112.500 L 75 150 112.500 150 L 150 150 150 187.500 L 150 225 112.500 225 L 75 225 75 262.500 L 75 300 112.500 300 L 150 300 150 337.500 L 150 375 112.500 375 L 75 375 75 412.500 L 75 450 112.500 450 L 150 450 150 487.500 L 150 525 187.500 525 L 225 525 225 487.500 L 225 450 262.500 450 L 300 450 300 487.500 L 300 525 337.500 525 L 375 525 375 487.500 L 375 450 412.500 450 L 450 450 450 487.500 L 450 525 487.500 525 L 525 525 525 487.500 L 525 450 487.500 450 L 450 450 450 412.500 L 450 375 487.500 375 L 525 375 525 337.500 L 525 300 487.500 300 L 450 300 450 262.500 L 450 225 487.500 225 L 525 225 525 187.500 L 525 150 487.500 150 L 450 150 450 112.500 L 450 75 412.500 75 L 375 75 375 112.500 L 375 150 337.500 150 L 300 150 300 112.500 L 300 75 262.500 75 L 225 75 225 112.500 L 225 150 187.500 150 L 150 150 150 112.500 L 150 75 112.500 75 L 75 75 75 112.500 M 225 187.500 L 225 225 187.500 225 L 150 225 150 262.500 L 150 300 187.500 300 L 225 300 225 337.500 L 225 375 187.500 375 L 150 375 150 412.500 L 150 450 187.500 450 L 225 450 225 412.500 L 225 375 262.500 375 L 300 375 300 412.500 L 300 450 337.500 450 L 375 450 375 412.500 L 375 375 412.500 375 L 450 375 450 337.500 L 450 300 412.500 300 L 375 300 375 262.500 L 375 225 412.500 225 L 450 225 450 187.500 L 450 150 412.500 150 L 375 150 375 187.500 L 375 225 337.500 225 L 300 225 300 187.500 L 300 150 262.500 150 L 225 150 225 187.500 M 0.454 262.500 C 0.453 283.400, 0.586 292.092, 0.748 281.816 C 0.911 271.540, 0.911 254.440, 0.749 243.816 C 0.587 233.192, 0.454 241.600, 0.454 262.500 M 225 262.500 L 225 300 262.500 300 L 300 300 300 337.500 L 300 375 337.500 375 L 375 375 375 337.500 L 375 300 337.500 300 L 300 300 300 262.500 L 300 225 262.500 225 L 225 225 225 262.500 M 0.454 412.500 C 0.453 433.400, 0.586 442.092, 0.748 431.816 C 0.911 421.540, 0.911 404.440, 0.749 393.816 C 0.587 383.192, 0.454 391.600, 0.454 412.500 M 0.454 562.500 C 0.453 583.400, 0.586 592.092, 0.748 581.816 C 0.911 571.540, 0.911 554.440, 0.749 543.816 C 0.587 533.192, 0.454 541.600, 0.454 562.500" stroke="none" fill="#bc5c4c" fill-rule="evenodd"/></svg>