<svg xmlns="http://www.w3.org/2000/svg" width="600" height="600" viewBox="0 0 600 600" version="1.1"><path d="M 110 325 L 110 331 98 331 L 86 331 86 337 L 86 343 68 343 L 50 343 50 349 L 50 355 44 355 L 38 355 38 361 L 38 367 32 367 L 26 367 26 379 L 26 391 20 391 L 14 391 14 397 L 14 403 56 403 L 98 403 98 397 L 98 391 104 391 L 110 391 110 385 L 110 379 116 379 L 122 379 122 373 L 122 367 127.500 367 L 133 367 133 349 L 133 331 127.500 331 L 122 331 122 325 L 122 319 116 319 L 110 319 110 325 M 145 367 L 145 379 175 379 L 205 379 205 367 L 205 355 175 355 L 145 355 145 367 M 229 367 L 229 379 264.500 379 L 300 379 300 367 L 300 355 264.500 355 L 229 355 229 367" stroke="none" fill="#d31724" fill-rule="evenodd"/><path d="M 324 385 L 324 391 353.500 391 L 383 391 383 385 L 383 379 353.500 379 L 324 379 324 385 M 407 385 L 407 391 443 391 L 479 391 479 385 L 479 379 443 379 L 407 379 407 385 M 502 385 L 502 391 532 391 L 562 391 562 385 L 562 379 532 379 L 502 379 502 385" stroke="none" fill="#949494" fill-rule="evenodd"/><path d="M 324 367 L 324 379 353.500 379 L 383 379 383 367 L 383 355 353.500 355 L 324 355 324 367 M 407 367 L 407 379 443 379 L 479 379 479 367 L 479 355 443 355 L 407 355 407 367 M 502 367 L 502 379 538 379 L 574 379 574 367 L 574 355 538 355 L 502 355 502 367" stroke="none" fill="#d5d5d5" fill-rule="evenodd"/><path d="M 324 349 L 324 355 353.500 355 L 383 355 383 373 L 383 391 389 391 L 395 391 395 367 L 395 343 359.500 343 L 324 343 324 349 M 407 349 L 407 355 443 355 L 479 355 479 373 L 479 391 484.500 391 L 490 391 490 367 L 490 343 448.500 343 L 407 343 407 349 M 502 349 L 502 355 538 355 L 574 355 574 367 L 574 379 568 379 L 562 379 562 385 L 562 391 568 391 L 574 391 574 385 L 574 379 580 379 L 586 379 586 367 L 586 355 580 355 L 574 355 574 349 L 574 343 538 343 L 502 343 502 349" stroke="none" fill="#e8e8e8" fill-rule="evenodd"/><path d="M 38 337 L 38 343 32 343 L 26 343 26 355 L 26 367 32 367 L 38 367 38 355 L 38 343 44 343 L 50 343 50 337 L 50 331 44 331 L 38 331 38 337" stroke="none" fill="#e9e9e9" fill-rule="evenodd"/><path d="M 26 313 L 26 319 20 319 L 14 319 14 325 L 14 331 8 331 L 2 331 2 367 L 2 403 8 403 L 14 403 14 408.500 L 14 414 20 414 L 26 414 26 420 L 26 426 68 426 L 110 426 110 420 L 110 414 116 414 L 122 414 122 408.500 L 122 403 348 403 L 574 403 574 397 L 574 391 580 391 L 586 391 586 385 L 586 379 592 379 L 598 379 598 367 L 598 355 592 355 L 586 355 586 349 L 586 343 580 343 L 574 343 574 337 L 574 331 353.500 331 L 133 331 133 325 L 133 319 127.500 319 L 122 319 122 313 L 122 307 110 307 L 98 307 98 313 L 98 319 74 319 L 50 319 50 313 L 50 307 38 307 L 26 307 26 313 M 26 325 L 26 331 20 331 L 14 331 14 367 L 14 403 20 403 L 26 403 26 408.500 L 26 414 68 414 L 110 414 110 408.500 L 110 403 116 403 L 122 403 122 397 L 122 391 127.500 391 L 133 391 133 361 L 133 331 127.500 331 L 122 331 122 325 L 122 319 110 319 L 98 319 98 325 L 98 331 74 331 L 50 331 50 325 L 50 319 38 319 L 26 319 26 325 M 145 367 L 145 391 181 391 L 217 391 217 367 L 217 343 181 343 L 145 343 145 367 M 229 367 L 229 391 270.500 391 L 312 391 312 367 L 312 343 270.500 343 L 229 343 229 367 M 324 367 L 324 391 359.500 391 L 395 391 395 367 L 395 343 359.500 343 L 324 343 324 367 M 407 367 L 407 391 448.500 391 L 490 391 490 367 L 490 343 448.500 343 L 407 343 407 367 M 502 367 L 502 391 538 391 L 574 391 574 385 L 574 379 580 379 L 586 379 586 367 L 586 355 580 355 L 574 355 574 349 L 574 343 538 343 L 502 343 502 367" stroke="none" fill="#000000" fill-rule="evenodd"/><path d="M 74 301.500 L 74 307 68 307 L 62 307 62 313 L 62 319 80 319 L 98 319 98 325 L 98 331 104 331 L 110 331 110 325 L 110 319 104 319 L 98 319 98 307.500 L 98 296 86 296 L 74 296 74 301.500 M 38 325 L 38 331 44 331 L 50 331 50 325 L 50 319 44 319 L 38 319 38 325" stroke="none" fill="#0c612d" fill-rule="evenodd"/><path d="M 62 290 L 62 296 56 296 L 50 296 50 307.500 L 50 319 56 319 L 62 319 62 313 L 62 307 68 307 L 74 307 74 301.500 L 74 296 80 296 L 86 296 86 290 L 86 284 74 284 L 62 284 62 290" stroke="none" fill="#088036" fill-rule="evenodd"/><path d="M 26 325 L 26 331 20 331 L 14 331 14 361 L 14 391 20 391 L 26 391 26 367 L 26 343 32 343 L 38 343 38 349 L 38 355 44 355 L 50 355 50 349 L 50 343 68 343 L 86 343 86 337 L 86 331 68 331 L 50 331 50 337 L 50 343 44 343 L 38 343 38 331 L 38 319 32 319 L 26 319 26 325 M 145 349 L 145 355 175 355 L 205 355 205 373 L 205 391 211 391 L 217 391 217 367 L 217 343 181 343 L 145 343 145 349 M 229 349 L 229 355 264.500 355 L 300 355 300 373 L 300 391 306 391 L 312 391 312 367 L 312 343 270.500 343 L 229 343 229 349" stroke="none" fill="#fd3b36" fill-rule="evenodd"/><path d="M 122 373 L 122 379 116 379 L 110 379 110 385 L 110 391 104 391 L 98 391 98 397 L 98 403 62 403 L 26 403 26 408.500 L 26 414 68 414 L 110 414 110 408.500 L 110 403 116 403 L 122 403 122 397 L 122 391 127.500 391 L 133 391 133 379 L 133 367 127.500 367 L 122 367 122 373 M 145 385 L 145 391 175 391 L 205 391 205 385 L 205 379 175 379 L 145 379 145 385 M 229 385 L 229 391 264.500 391 L 300 391 300 385 L 300 379 264.500 379 L 229 379 229 385" stroke="none" fill="#64060e" fill-rule="evenodd"/><path d="" stroke="none" fill="#040d07" fill-rule="evenodd"/></svg>