<svg xmlns="http://www.w3.org/2000/svg" version="1.1" viewBox="16 31 570 569"><path d="M 154 436 L 154 445 145.500 445 L 137 445 137 454 L 137 463 145.500 463 L 154 463 154 471.500 L 154 480 145.500 480 L 137 480 137 488.500 L 137 497 171.500 497 L 206 497 206 480 L 206 463 180 463 L 154 463 154 454 L 154 445 180 445 L 206 445 206 436 L 206 427 180 427 L 154 427 154 436 M 223 462 L 223 497 231.500 497 L 240 497 240 488.500 L 240 480 257.500 480 L 275 480 275 488.500 L 275 497 283.500 497 L 292 497 292 462 L 292 427 283.500 427 L 275 427 275 445 L 275 463 257.500 463 L 240 463 240 445 L 240 427 231.500 427 L 223 427 223 462 M 327 436 L 327 445 318 445 L 309 445 309 462.500 L 309 480 318 480 L 327 480 327 488.500 L 327 497 344.500 497 L 362 497 362 488.500 L 362 480 370.500 480 L 379 480 379 462.500 L 379 445 370.500 445 L 362 445 362 436 L 362 427 344.500 427 L 327 427 327 436 M 396 462 L 396 497 404.500 497 L 413 497 413 488.500 L 413 480 430.500 480 L 448 480 448 471.500 L 448 463 456.500 463 L 465 463 465 445 L 465 427 430.500 427 L 396 427 396 462 M 327 462.500 L 327 480 344.500 480 L 362 480 362 462.500 L 362 445 344.500 445 L 327 445 327 462.500 M 413 454 L 413 463 430.500 463 L 448 463 448 454 L 448 445 430.500 445 L 413 445 413 454" stroke="none" fill="#ffda53" fill-rule="evenodd"/><path d="M 69 470.500 L 69 514 86 514 L 103 514 103 470.500 L 103 427 86 427 L 69 427 69 470.500 M 120 470.500 L 120 514 146 514 L 172 514 172 505.500 L 172 497 154.500 497 L 137 497 137 488.500 L 137 480 145.500 480 L 154 480 154 471.500 L 154 463 163 463 L 172 463 172 454 L 172 445 163 445 L 154 445 154 436 L 154 427 137 427 L 120 427 120 470.500 M 258 445 L 258 463 266.500 463 L 275 463 275 445 L 275 427 266.500 427 L 258 427 258 445 M 309 436 L 309 445 318 445 L 327 445 327 462.500 L 327 480 318 480 L 309 480 309 488.500 L 309 497 292 497 L 275 497 275 488.500 L 275 480 266.500 480 L 258 480 258 497 L 258 514 301 514 L 344 514 344 505.500 L 344 497 335.500 497 L 327 497 327 488.500 L 327 480 335.500 480 L 344 480 344 462.500 L 344 445 335.500 445 L 327 445 327 436 L 327 427 318 427 L 309 427 309 436 M 379 462 L 379 497 370.500 497 L 362 497 362 505.500 L 362 514 387.500 514 L 413 514 413 505.500 L 413 497 404.500 497 L 396 497 396 462 L 396 427 387.500 427 L 379 427 379 462 M 499 470.500 L 499 514 516 514 L 533 514 533 470.500 L 533 427 516 427 L 499 427 499 470.500 M 137 454 L 137 463 145.500 463 L 154 463 154 454 L 154 445 145.500 445 L 137 445 137 454 M 189 454 L 189 463 206 463 L 223 463 223 454 L 223 445 206 445 L 189 445 189 454 M 430 454 L 430 463 439 463 L 448 463 448 454 L 448 445 439 445 L 430 445 430 454 M 465 471.500 L 465 480 447.500 480 L 430 480 430 497 L 430 514 456 514 L 482 514 482 488.500 L 482 463 473.500 463 L 465 463 465 471.500 M 189 505.500 L 189 514 214.500 514 L 240 514 240 505.500 L 240 497 214.500 497 L 189 497 189 505.500 M 51 574.500 L 51 583 301 583 L 551 583 551 574.500 L 551 566 301 566 L 51 566 51 574.500" stroke="none" fill="#ad7434" fill-rule="evenodd"/><path d="M 69 418.500 L 69 427 86 427 L 103 427 103 418.500 L 103 410 86 410 L 69 410 69 418.500 M 120 418.500 L 120 427 146 427 L 172 427 172 418.500 L 172 410 146 410 L 120 410 120 418.500 M 189 418.500 L 189 427 197.500 427 L 206 427 206 436 L 206 445 214.500 445 L 223 445 223 436 L 223 427 231.500 427 L 240 427 240 418.500 L 240 410 214.500 410 L 189 410 189 418.500 M 258 418.500 L 258 427 275 427 L 292 427 292 462 L 292 497 300.500 497 L 309 497 309 462 L 309 427 326.500 427 L 344 427 344 418.500 L 344 410 301 410 L 258 410 258 418.500 M 362 427.500 L 362 445 370.500 445 L 379 445 379 436 L 379 427 396 427 L 413 427 413 418.500 L 413 410 387.500 410 L 362 410 362 427.500 M 430 418.500 L 430 427 447.500 427 L 465 427 465 445 L 465 463 456.500 463 L 448 463 448 471.500 L 448 480 456.500 480 L 465 480 465 471.500 L 465 463 473.500 463 L 482 463 482 436.500 L 482 410 456 410 L 430 410 430 418.500 M 499 418.500 L 499 427 516 427 L 533 427 533 418.500 L 533 410 516 410 L 499 410 499 418.500 M 206 480 L 206 497 214.500 497 L 223 497 223 480 L 223 463 214.500 463 L 206 463 206 480 M 362 488.500 L 362 497 370.500 497 L 379 497 379 488.500 L 379 480 370.500 480 L 362 480 362 488.500" stroke="none" fill="#95652f" fill-rule="evenodd"/><path d="M 103 418.500 L 103 427 111.500 427 L 120 427 120 418.500 L 120 410 111.500 410 L 103 410 103 418.500 M 172 418.500 L 172 427 180.500 427 L 189 427 189 418.500 L 189 410 180.500 410 L 172 410 172 418.500 M 240 436.500 L 240 463 249 463 L 258 463 258 436.500 L 258 410 249 410 L 240 410 240 436.500 M 344 418.500 L 344 427 353 427 L 362 427 362 418.500 L 362 410 353 410 L 344 410 344 418.500 M 413 418.500 L 413 427 421.500 427 L 430 427 430 418.500 L 430 410 421.500 410 L 413 410 413 418.500 M 172 454 L 172 463 180.500 463 L 189 463 189 454 L 189 445 180.500 445 L 172 445 172 454 M 344 462.500 L 344 480 353 480 L 362 480 362 462.500 L 362 445 353 445 L 344 445 344 462.500 M 413 454 L 413 463 421.500 463 L 430 463 430 454 L 430 445 421.500 445 L 413 445 413 454 M 240 488.500 L 240 497 249 497 L 258 497 258 488.500 L 258 480 249 480 L 240 480 240 488.500 M 413 488.500 L 413 497 421.500 497 L 430 497 430 488.500 L 430 480 421.500 480 L 413 480 413 488.500" stroke="none" fill="#593308" fill-rule="evenodd"/><path d="M 69 401.500 L 69 410 275.500 410 L 482 410 482 462 L 482 514 456 514 L 430 514 430 505.500 L 430 497 421.500 497 L 413 497 413 505.500 L 413 514 387.500 514 L 362 514 362 505.500 L 362 497 353 497 L 344 497 344 505.500 L 344 514 301 514 L 258 514 258 505.500 L 258 497 249 497 L 240 497 240 505.500 L 240 514 214.500 514 L 189 514 189 505.500 L 189 497 180.500 497 L 172 497 172 505.500 L 172 514 146 514 L 120 514 120 470.500 L 120 427 111.500 427 L 103 427 103 470.500 L 103 514 86 514 L 69 514 69 522.500 L 69 531 301 531 L 533 531 533 522.500 L 533 514 516 514 L 499 514 499 462 L 499 410 516 410 L 533 410 533 401.500 L 533 393 301 393 L 69 393 69 401.500" stroke="none" fill="#8b571d" fill-rule="evenodd"/><path d="M 51 384.500 L 51 393 301 393 L 551 393 551 384.500 L 551 376 301 376 L 51 376 51 384.500 M 51 557 L 51 566 301 566 L 551 566 551 557 L 551 548 301 548 L 51 548 51 557" stroke="none" fill="#df8e35" fill-rule="evenodd"/><path d="M 51 367 L 51 376 301 376 L 551 376 551 367 L 551 358 301 358 L 51 358 51 367 M 69 539.500 L 69 548 301 548 L 533 548 533 539.500 L 533 531 301 531 L 69 531 69 539.500" stroke="none" fill="#fbc282" fill-rule="evenodd"/><path d="M 482 281 L 482 307 499 307 L 516 307 516 290 L 516 273 507.500 273 L 499 273 499 264 L 499 255 490.500 255 L 482 255 482 281 M 86 290 L 86 307 103 307 L 120 307 120 290 L 120 273 103 273 L 86 273 86 290 M 69 349.500 L 69 358 103 358 L 137 358 137 349.500 L 137 341 103 341 L 69 341 69 349.500 M 465 349.500 L 465 358 499 358 L 533 358 533 349.500 L 533 341 499 341 L 465 341 465 349.500" stroke="none" fill="#ae7c29" fill-rule="evenodd"/><path d="M 86 324 L 86 341 103 341 L 120 341 120 324 L 120 307 103 307 L 86 307 86 324 M 482 324 L 482 341 499 341 L 516 341 516 324 L 516 307 499 307 L 482 307 482 324" stroke="none" fill="#fbbc32" fill-rule="evenodd"/><path d="M 482 281 L 482 307 499 307 L 516 307 516 290 L 516 273 507.500 273 L 499 273 499 264 L 499 255 490.500 255 L 482 255 482 281 M 86 290 L 86 307 103 307 L 120 307 120 290 L 120 273 103 273 L 86 273 86 290 M 69 349.500 L 69 358 103 358 L 137 358 137 349.500 L 137 341 103 341 L 69 341 69 349.500 M 465 349.500 L 465 358 499 358 L 533 358 533 349.500 L 533 341 499 341 L 465 341 465 349.500" stroke="none" fill="#ae7c29" fill-rule="evenodd"/><path d="M 482 246.500 L 482 255 490.500 255 L 499 255 499 264 L 499 273 516 273 L 533 273 533 264 L 533 255 516 255 L 499 255 499 246.500 L 499 238 490.500 238 L 482 238 482 246.500 M 69 264 L 69 273 94.500 273 L 120 273 120 264 L 120 255 94.500 255 L 69 255 69 264" stroke="none" fill="#63050c" fill-rule="evenodd"/><path d="M 137 221 L 137 238 145.500 238 L 154 238 154 246.500 L 154 255 188.500 255 L 223 255 223 246.500 L 223 238 231.500 238 L 240 238 240 221 L 240 204 188.500 204 L 137 204 137 221 M 379 229.500 L 379 255 430.500 255 L 482 255 482 229.500 L 482 204 430.500 204 L 379 204 379 229.500" stroke="none" fill="#0c612d" fill-rule="evenodd"/><path d="M 34 212.500 L 34 238 42.500 238 L 51 238 51 246.500 L 51 255 94 255 L 137 255 137 229.500 L 137 204 94 204 L 51 204 51 195.500 L 51 187 42.500 187 L 34 187 34 212.500 M 240 221 L 240 238 249 238 L 258 238 258 246.500 L 258 255 301 255 L 344 255 344 246.500 L 344 238 361.500 238 L 379 238 379 221 L 379 204 309.500 204 L 240 204 240 221 M 482 221 L 482 238 490.500 238 L 499 238 499 246.500 L 499 255 525 255 L 551 255 551 246.500 L 551 238 559.500 238 L 568 238 568 221 L 568 204 525 204 L 482 204 482 221" stroke="none" fill="#b7313b" fill-rule="evenodd"/><path d="M 34 161 L 34 187 42.500 187 L 51 187 51 195.500 L 51 204 94 204 L 137 204 137 169.500 L 137 135 85.500 135 L 34 135 34 161 M 240 169.500 L 240 204 309.500 204 L 379 204 379 169.500 L 379 135 309.500 135 L 240 135 240 169.500 M 482 169.500 L 482 204 525 204 L 568 204 568 169.500 L 568 135 525 135 L 482 135 482 169.500" stroke="none" fill="#d30f1e" fill-rule="evenodd"/><path d="M 137 169.500 L 137 204 188.500 204 L 240 204 240 169.500 L 240 135 188.500 135 L 137 135 137 169.500 M 379 169.500 L 379 204 430.500 204 L 482 204 482 169.500 L 482 135 430.500 135 L 379 135 379 169.500" stroke="none" fill="#088036" fill-rule="evenodd"/><path d="M 172 65.500 L 172 83 163 83 L 154 83 154 100 L 154 117 145.500 117 L 137 117 137 126 L 137 135 188.500 135 L 240 135 240 126 L 240 117 249 117 L 258 117 258 91 L 258 65 266.500 65 L 275 65 275 56.500 L 275 48 223.500 48 L 172 48 172 65.500 M 344 56.500 L 344 65 353 65 L 362 65 362 91 L 362 117 370.500 117 L 379 117 379 126 L 379 135 430.500 135 L 482 135 482 126 L 482 117 473.500 117 L 465 117 465 100 L 465 83 456.500 83 L 448 83 448 65.500 L 448 48 396 48 L 344 48 344 56.500" stroke="none" fill="#42bd71" fill-rule="evenodd"/><path d="M 103 56.500 L 103 65 94.500 65 L 86 65 86 74 L 86 83 77.500 83 L 69 83 69 91.500 L 69 100 60 100 L 51 100 51 117.500 L 51 135 94 135 L 137 135 137 126 L 137 117 145.500 117 L 154 117 154 100 L 154 83 163 83 L 172 83 172 65.500 L 172 48 137.500 48 L 103 48 103 56.500 M 275 56.500 L 275 65 266.500 65 L 258 65 258 91 L 258 117 249 117 L 240 117 240 126 L 240 135 309.500 135 L 379 135 379 126 L 379 117 370.500 117 L 362 117 362 91 L 362 65 353 65 L 344 65 344 56.500 L 344 48 309.500 48 L 275 48 275 56.500 M 448 65.500 L 448 83 456.500 83 L 465 83 465 100 L 465 117 473.500 117 L 482 117 482 126 L 482 135 516.500 135 L 551 135 551 117.500 L 551 100 542 100 L 533 100 533 91.500 L 533 83 524.500 83 L 516 83 516 74 L 516 65 507.500 65 L 499 65 499 56.500 L 499 48 473.500 48 L 448 48 448 65.500" stroke="none" fill="#f1626d" fill-rule="evenodd"/><path d="M 103 39.500 L 103 48 94.500 48 L 86 48 86 56.500 L 86 65 77.500 65 L 69 65 69 74 L 69 83 60 83 L 51 83 51 91.500 L 51 100 42.500 100 L 34 100 34 117.500 L 34 135 25 135 L 16 135 16 186.500 L 16 238 25 238 L 34 238 34 246.500 L 34 255 42.500 255 L 51 255 51 264 L 51 273 60 273 L 69 273 69 307 L 69 341 51.500 341 L 34 341 34 367 L 34 393 42.500 393 L 51 393 51 470.500 L 51 548 42.500 548 L 34 548 34 574 L 34 600 301 600 L 568 600 568 574 L 568 548 559.500 548 L 551 548 551 470.500 L 551 393 559.500 393 L 568 393 568 367 L 568 341 550.500 341 L 533 341 533 307 L 533 273 542 273 L 551 273 551 264 L 551 255 559.500 255 L 568 255 568 246.500 L 568 238 577 238 L 586 238 586 186.500 L 586 135 577 135 L 568 135 568 117.500 L 568 100 559.500 100 L 551 100 551 91.500 L 551 83 542 83 L 533 83 533 74 L 533 65 524.500 65 L 516 65 516 56.500 L 516 48 507.500 48 L 499 48 499 39.500 L 499 31 301 31 L 103 31 103 39.500 M 103 56.500 L 103 65 94.500 65 L 86 65 86 74 L 86 83 77.500 83 L 69 83 69 91.500 L 69 100 60 100 L 51 100 51 117.500 L 51 135 42.500 135 L 34 135 34 186.500 L 34 238 42.500 238 L 51 238 51 246.500 L 51 255 60 255 L 69 255 69 264 L 69 273 77.500 273 L 86 273 86 307 L 86 341 77.500 341 L 69 341 69 349.500 L 69 358 60 358 L 51 358 51 375.500 L 51 393 60 393 L 69 393 69 470.500 L 69 548 60 548 L 51 548 51 565.500 L 51 583 301 583 L 551 583 551 565.500 L 551 548 542 548 L 533 548 533 470.500 L 533 393 542 393 L 551 393 551 375.500 L 551 358 542 358 L 533 358 533 349.500 L 533 341 524.500 341 L 516 341 516 307 L 516 273 524.500 273 L 533 273 533 264 L 533 255 542 255 L 551 255 551 246.500 L 551 238 559.500 238 L 568 238 568 186.500 L 568 135 559.500 135 L 551 135 551 117.500 L 551 100 542 100 L 533 100 533 91.500 L 533 83 524.500 83 L 516 83 516 74 L 516 65 507.500 65 L 499 65 499 56.500 L 499 48 301 48 L 103 48 103 56.500 M 137 246.500 L 137 255 128.500 255 L 120 255 120 298 L 120 341 128.500 341 L 137 341 137 349.500 L 137 358 301 358 L 465 358 465 349.500 L 465 341 473.500 341 L 482 341 482 298 L 482 255 430.500 255 L 379 255 379 246.500 L 379 238 361.500 238 L 344 238 344 246.500 L 344 255 301 255 L 258 255 258 246.500 L 258 238 240.500 238 L 223 238 223 246.500 L 223 255 188.500 255 L 154 255 154 246.500 L 154 238 145.500 238 L 137 238 137 246.500 M 137 298 L 137 341 301 341 L 465 341 465 307 L 465 273 422 273 L 379 273 379 264 L 379 255 361.500 255 L 344 255 344 264 L 344 273 301 273 L 258 273 258 264 L 258 255 240.500 255 L 223 255 223 264 L 223 273 188.500 273 L 154 273 154 264 L 154 255 145.500 255 L 137 255 137 298" stroke="none" fill="#050505" fill-rule="evenodd"/><path d="" stroke="none" fill="#bb5635" fill-rule="evenodd"/></svg>